<svg preserveAspectRatio="none" overflow="visible" style="display: block;" width="39" height="39" viewBox="0 0 39 39" fill="none" xmlns="http://www.w3.org/2000/svg">
<g id="finger print">
<g id="Vector">
<path d="M27.3 30C27.2064 29.9682 27.1075 29.9553 27.009 29.9618C26.9104 29.9684 26.8141 29.9944 26.7256 30.0383C26.637 30.0822 26.5581 30.1432 26.4932 30.2177C26.4283 30.2922 26.3788 30.3788 26.3475 30.4725C26.295 30.6375 26.235 30.8025 26.1675 30.96C26.0901 31.143 26.0885 31.3493 26.163 31.5335C26.2375 31.7177 26.3821 31.8648 26.565 31.9425C26.6568 31.9841 26.7567 32.0046 26.8575 32.0025C27.0047 32.0024 27.1486 31.9589 27.2713 31.8776C27.394 31.7962 27.4901 31.6806 27.5475 31.545C27.63 31.3425 27.705 31.1475 27.7725 30.9525C27.8043 30.859 27.8172 30.76 27.8107 30.6615C27.8041 30.5629 27.7781 30.4666 27.7342 30.3781C27.6903 30.2895 27.6293 30.2106 27.5548 30.1457C27.4803 30.0808 27.3937 30.0313 27.3 30ZM29.25 18C29.253 16.7014 28.995 15.4154 28.4912 14.2185C27.9875 13.0216 27.2482 11.9381 26.3175 11.0325C26.2466 10.9636 26.1628 10.9093 26.0709 10.8727C25.979 10.8361 25.8808 10.818 25.7819 10.8194C25.683 10.8208 25.5853 10.8417 25.4945 10.8808C25.4037 10.9199 25.3214 10.9766 25.2525 11.0475C25.1836 11.1184 25.1293 11.2022 25.0927 11.2941C25.0561 11.386 25.038 11.4842 25.0394 11.5831C25.0408 11.682 25.0617 11.7797 25.1008 11.8705C25.1399 11.9613 25.1966 12.0436 25.2675 12.1125C26.0568 12.8759 26.6836 13.7909 27.1102 14.8027C27.5368 15.8144 27.7544 16.902 27.75 18V22.665C27.754 24.5923 27.5018 26.5116 27 28.3725C26.974 28.468 26.9671 28.5678 26.9798 28.666C26.9925 28.7642 27.0245 28.8589 27.074 28.9447C27.1236 29.0305 27.1896 29.1056 27.2682 29.1657C27.3469 29.2258 27.4367 29.2698 27.5325 29.295H27.7275C27.8968 29.3008 28.0631 29.2491 28.1993 29.1483C28.3355 29.0475 28.4336 28.9036 28.4775 28.74C28.9935 26.7491 29.2457 24.6991 29.2275 22.6425L29.25 18ZM8.5725 27.45C8.67121 27.4506 8.76905 27.4317 8.86043 27.3943C8.95181 27.357 9.03492 27.302 9.105 27.2325L9.54 26.79C10.0826 26.2489 10.5129 25.6059 10.8063 24.898C11.0998 24.1901 11.2506 23.4313 11.25 22.665V18C11.2489 16.6052 11.6015 15.2328 12.2748 14.0113C12.9481 12.7897 13.9202 11.7588 15.1001 11.0149C16.28 10.271 17.6292 9.83842 19.0217 9.75755C20.4142 9.67668 21.8044 9.95019 23.0625 10.5525C23.152 10.6034 23.2511 10.6354 23.3535 10.6463C23.4559 10.6573 23.5595 10.647 23.6578 10.6162C23.7561 10.5854 23.847 10.5346 23.9248 10.4671C24.0026 10.3997 24.0657 10.3169 24.1101 10.2239C24.1545 10.131 24.1792 10.0299 24.1829 9.92694C24.1865 9.824 24.1689 9.72142 24.1311 9.62559C24.0933 9.52976 24.0362 9.44274 23.9633 9.36995C23.8905 9.29716 23.8034 9.24016 23.7075 9.2025C22.2211 8.49145 20.5787 8.16869 18.9338 8.26438C17.2889 8.36006 15.695 8.87107 14.3011 9.74967C12.9071 10.6283 11.7586 11.8458 10.9628 13.2886C10.1669 14.7313 9.74965 16.3523 9.75 18V22.665C9.75124 23.2353 9.63917 23.8001 9.42029 24.3267C9.20142 24.8533 8.8801 25.3311 8.475 25.7325L8.04 26.1675C7.9697 26.2372 7.91391 26.3202 7.87583 26.4116C7.83775 26.503 7.81815 26.601 7.81815 26.7C7.81815 26.799 7.83775 26.897 7.87583 26.9884C7.91391 27.0798 7.9697 27.1628 8.04 27.2325C8.11008 27.302 8.19319 27.357 8.28457 27.3943C8.37595 27.4317 8.4738 27.4506 8.5725 27.45Z" fill="url(#paint0_radial_0_12)"/>
<path d="M26.25 20.25C26.25 20.0511 26.171 19.8603 26.0303 19.7197C25.8897 19.579 25.6989 19.5 25.5 19.5C25.3011 19.5 25.1103 19.579 24.9697 19.7197C24.829 19.8603 24.75 20.0511 24.75 20.25V22.665C24.7582 26.3259 23.7171 29.9125 21.75 33C21.6429 33.1672 21.6064 33.37 21.6486 33.564C21.6907 33.758 21.8081 33.9274 21.975 34.035C22.0957 34.113 22.2363 34.1546 22.38 34.155C22.5055 34.1548 22.6289 34.1231 22.739 34.0628C22.8491 34.0026 22.9422 33.9156 23.01 33.81C25.1346 30.4817 26.2591 26.6136 26.25 22.665V20.25ZM13.5 21C13.6989 21 13.8897 20.921 14.0303 20.7803C14.171 20.6397 14.25 20.4489 14.25 20.25V18C14.1635 16.6076 14.6336 15.2379 15.557 14.1921C16.4804 13.1464 17.7814 12.5103 19.1738 12.4238C20.5661 12.3372 21.9359 12.8074 22.9816 13.7307C24.0274 14.6541 24.6635 15.9551 24.75 17.3475C24.7759 17.5464 24.8797 17.7269 25.0386 17.8493C25.1975 17.9716 25.3986 18.0259 25.5975 18C25.7964 17.9741 25.9769 17.8703 26.0993 17.7114C26.2216 17.5525 26.2759 17.3514 26.25 17.1525C26.1376 15.3623 25.3187 13.69 23.9733 12.5036C22.628 11.3172 20.8665 10.7139 19.0763 10.8262C17.286 10.9386 15.6138 11.7576 14.4274 13.1029C13.241 14.4483 12.6376 16.2098 12.75 18V20.25C12.75 20.4489 12.829 20.6397 12.9697 20.7803C13.1103 20.921 13.3011 21 13.5 21ZM13.5 22.5C13.4015 22.4929 13.3025 22.5053 13.2087 22.5365C13.115 22.5677 13.0284 22.6172 12.9538 22.682C12.8792 22.7468 12.8182 22.8257 12.7742 22.9142C12.7302 23.0026 12.7042 23.0989 12.6975 23.1975C12.5708 24.9557 11.8146 26.6092 10.5675 27.855L9.66 28.8C9.582 28.8678 9.51886 28.951 9.47454 29.0444C9.43021 29.1377 9.40566 29.2392 9.40242 29.3425C9.39918 29.4458 9.41733 29.5487 9.45571 29.6446C9.4941 29.7406 9.5519 29.8275 9.6255 29.9001C9.69909 29.9727 9.78689 30.0292 9.88337 30.0662C9.97986 30.1033 10.083 30.1199 10.1862 30.1152C10.2894 30.1105 10.3906 30.0846 10.4833 30.0389C10.576 29.9933 10.6583 29.9289 10.725 29.85L11.6625 28.9125C13.1726 27.4152 14.0914 25.4231 14.25 23.3025C14.2572 23.1997 14.2432 23.0965 14.2087 22.9993C14.1743 22.9022 14.1202 22.8132 14.0498 22.7379C13.9794 22.6626 13.8943 22.6026 13.7997 22.5617C13.7051 22.5207 13.6031 22.4997 13.5 22.5ZM22.2825 25.5C22.186 25.4803 22.0865 25.4798 21.9898 25.4985C21.8931 25.5172 21.801 25.5548 21.7188 25.6092C21.6366 25.6635 21.5659 25.7335 21.5108 25.8151C21.4557 25.8968 21.4172 25.9885 21.3975 26.085C20.8405 28.7284 19.6314 31.1906 17.88 33.2475C17.7507 33.3987 17.6868 33.595 17.7022 33.7933C17.7177 33.9917 17.8113 34.1757 17.9625 34.305C18.1137 34.4343 18.31 34.4982 18.5083 34.4828C18.7067 34.4673 18.8907 34.3737 19.02 34.2225C20.9344 31.9735 22.2569 29.2821 22.8675 26.3925C22.8883 26.2954 22.8897 26.1952 22.8715 26.0976C22.8533 26.0001 22.8159 25.9071 22.7614 25.824C22.707 25.741 22.6367 25.6696 22.5545 25.614C22.4722 25.5584 22.3798 25.5196 22.2825 25.5Z" fill="url(#paint1_radial_0_12)"/>
<path d="M17.25 18C17.25 17.4033 17.4871 16.831 17.909 16.409C18.331 15.9871 18.9033 15.75 19.5 15.75C20.0967 15.75 20.669 15.9871 21.091 16.409C21.5129 16.831 21.75 17.4033 21.75 18V23.19C21.7341 23.3889 21.7978 23.586 21.9272 23.7379C22.0566 23.8898 22.2411 23.9841 22.44 24C22.6389 24.0159 22.836 23.9522 22.9879 23.8228C23.1398 23.6934 23.2341 23.5089 23.25 23.31V18C23.25 17.0054 22.8549 16.0516 22.1517 15.3483C21.4484 14.6451 20.4946 14.25 19.5 14.25C18.5054 14.25 17.5516 14.6451 16.8483 15.3483C16.1451 16.0516 15.75 17.0054 15.75 18V22.665C15.7625 24.0256 15.5036 25.3751 14.9885 26.6346C14.4734 27.894 13.7124 29.0381 12.75 30C12.6797 30.0697 12.6239 30.1527 12.5858 30.2441C12.5478 30.3355 12.5282 30.4335 12.5282 30.5325C12.5282 30.6315 12.5478 30.7295 12.5858 30.8209C12.6239 30.9123 12.6797 30.9953 12.75 31.065C12.8197 31.1353 12.9027 31.1911 12.9941 31.2292C13.0855 31.2672 13.1835 31.2868 13.2825 31.2868C13.3815 31.2868 13.4795 31.2672 13.5709 31.2292C13.6623 31.1911 13.7453 31.1353 13.815 31.065C14.9147 29.9617 15.7846 28.6511 16.3743 27.2092C16.9639 25.7673 17.2616 24.2228 17.25 22.665V18ZM15.4875 31.4025C15.285 31.6425 15.0675 31.8675 14.8425 32.0925C14.7722 32.1622 14.7164 32.2452 14.6783 32.3366C14.6403 32.428 14.6207 32.526 14.6207 32.625C14.6207 32.724 14.6403 32.822 14.6783 32.9134C14.7164 33.0048 14.7722 33.0878 14.8425 33.1575C14.9122 33.2278 14.9952 33.2836 15.0866 33.3217C15.178 33.3597 15.276 33.3794 15.375 33.3794C15.474 33.3794 15.572 33.3597 15.6634 33.3217C15.7548 33.2836 15.8378 33.2278 15.9075 33.1575C16.1625 32.9025 16.395 32.6475 16.6575 32.4075C16.7868 32.2563 16.8507 32.06 16.8353 31.8617C16.8198 31.6633 16.7262 31.4793 16.575 31.35C16.4238 31.2207 16.2275 31.1568 16.0292 31.1722C15.8308 31.1877 15.6468 31.2813 15.5175 31.4325L15.4875 31.4025Z" fill="url(#paint2_radial_0_12)"/>
<path d="M18 30.5175C19.473 28.1635 20.2528 25.4419 20.25 22.665V18C20.25 17.8011 20.171 17.6103 20.0303 17.4697C19.8897 17.329 19.6989 17.25 19.5 17.25C19.3011 17.25 19.1103 17.329 18.9697 17.4697C18.829 17.6103 18.75 17.8011 18.75 18V22.665C18.7536 25.1613 18.0516 27.6078 16.725 29.7225C16.6196 29.8916 16.5856 30.0956 16.6306 30.2897C16.6757 30.4838 16.7959 30.6521 16.965 30.7575C17.1341 30.8629 17.3381 30.8969 17.5322 30.8519C17.7263 30.8068 17.8946 30.6866 18 30.5175ZM9.4425 11.4C9.52152 11.4603 9.61173 11.5042 9.70789 11.5293C9.80405 11.5544 9.90423 11.5602 10.0026 11.5462C10.101 11.5322 10.1957 11.4989 10.281 11.448C10.3664 11.3972 10.4409 11.3299 10.5 11.25C11.9167 9.36106 13.8918 7.96575 16.1456 7.26172C18.3994 6.5577 20.8176 6.58064 23.0576 7.32731C25.2976 8.07398 27.2459 9.50652 28.6265 11.422C30.0071 13.3375 30.75 15.6388 30.75 18V21.75C30.75 21.9489 30.829 22.1397 30.9697 22.2803C31.1103 22.421 31.3011 22.5 31.5 22.5C31.6989 22.5 31.8897 22.421 32.0303 22.2803C32.171 22.1397 32.25 21.9489 32.25 21.75V18C32.2521 15.3221 31.411 12.7115 29.8459 10.5385C28.2808 8.3655 26.0713 6.74046 23.5307 5.89388C20.9901 5.04729 18.2475 5.02214 15.6918 5.82199C13.1361 6.62184 10.8972 8.20608 9.2925 10.35C9.17315 10.5091 9.12191 10.7092 9.15004 10.9061C9.17817 11.103 9.28337 11.2807 9.4425 11.4ZM8.25 18C8.24999 16.5124 8.54307 15.0393 9.1125 13.665C9.16682 13.4866 9.15276 13.2944 9.07305 13.1259C8.99334 12.9573 8.85369 12.8245 8.68136 12.7533C8.50902 12.6821 8.31635 12.6777 8.14092 12.7409C7.96549 12.804 7.81988 12.9303 7.7325 13.095C7.08241 14.6485 6.7484 16.316 6.75 18V21.75C6.75 21.9489 6.82902 22.1397 6.96967 22.2803C7.11032 22.421 7.30109 22.5 7.5 22.5C7.69891 22.5 7.88968 22.421 8.03033 22.2803C8.17098 22.1397 8.25 21.9489 8.25 21.75V18ZM0.75 9.75C0.948912 9.75 1.13968 9.67098 1.28033 9.53033C1.42098 9.38968 1.5 9.19891 1.5 9V1.5H9C9.19891 1.5 9.38968 1.42098 9.53033 1.28033C9.67098 1.13968 9.75 0.948912 9.75 0.75C9.75 0.551088 9.67098 0.360322 9.53033 0.21967C9.38968 0.0790178 9.19891 0 9 0H0.75C0.551088 0 0.360322 0.0790178 0.21967 0.21967C0.0790178 0.360322 0 0.551088 0 0.75V9C0 9.19891 0.0790178 9.38968 0.21967 9.53033C0.360322 9.67098 0.551088 9.75 0.75 9.75ZM38.25 0H30C29.8011 0 29.6103 0.0790178 29.4697 0.21967C29.329 0.360322 29.25 0.551088 29.25 0.75C29.25 0.948912 29.329 1.13968 29.4697 1.28033C29.6103 1.42098 29.8011 1.5 30 1.5H37.5V9C37.5 9.19891 37.579 9.38968 37.7197 9.53033C37.8603 9.67098 38.0511 9.75 38.25 9.75C38.4489 9.75 38.6397 9.67098 38.7803 9.53033C38.921 9.38968 39 9.19891 39 9V0.75C39 0.551088 38.921 0.360322 38.7803 0.21967C38.6397 0.0790178 38.4489 0 38.25 0ZM38.25 29.25C38.0511 29.25 37.8603 29.329 37.7197 29.4697C37.579 29.6103 37.5 29.8011 37.5 30V37.5H30C29.8011 37.5 29.6103 37.579 29.4697 37.7197C29.329 37.8603 29.25 38.0511 29.25 38.25C29.25 38.4489 29.329 38.6397 29.4697 38.7803C29.6103 38.921 29.8011 39 30 39H38.25C38.4489 39 38.6397 38.921 38.7803 38.7803C38.921 38.6397 39 38.4489 39 38.25V30C39 29.8011 38.921 29.6103 38.7803 29.4697C38.6397 29.329 38.4489 29.25 38.25 29.25ZM9 37.5H1.5V30C1.5 29.8011 1.42098 29.6103 1.28033 29.4697C1.13968 29.329 0.948912 29.25 0.75 29.25C0.551088 29.25 0.360322 29.329 0.21967 29.4697C0.0790178 29.6103 0 29.8011 0 30V38.25C0 38.4489 0.0790178 38.6397 0.21967 38.7803C0.360322 38.921 0.551088 39 0.75 39H9C9.19891 39 9.38968 38.921 9.53033 38.7803C9.67098 38.6397 9.75 38.4489 9.75 38.25C9.75 38.0511 9.67098 37.8603 9.53033 37.7197C9.38968 37.579 9.19891 37.5 9 37.5Z" fill="url(#paint3_radial_0_12)"/>
</g>
</g>
<defs>
<radialGradient id="paint0_radial_0_12" cx="0" cy="0" r="1" gradientUnits="userSpaceOnUse" gradientTransform="translate(19.5 19.5) rotate(90) scale(28.2)">
<stop offset="0.303178" stop-color="#264BFF"/>
<stop offset="1" stop-color="white" stop-opacity="0.1"/>
</radialGradient>
<radialGradient id="paint1_radial_0_12" cx="0" cy="0" r="1" gradientUnits="userSpaceOnUse" gradientTransform="translate(19.5 19.5) rotate(90) scale(28.2)">
<stop offset="0.303178" stop-color="#264BFF"/>
<stop offset="1" stop-color="white" stop-opacity="0.1"/>
</radialGradient>
<radialGradient id="paint2_radial_0_12" cx="0" cy="0" r="1" gradientUnits="userSpaceOnUse" gradientTransform="translate(19.5 19.5) rotate(90) scale(28.2)">
<stop offset="0.303178" stop-color="#264BFF"/>
<stop offset="1" stop-color="white" stop-opacity="0.1"/>
</radialGradient>
<radialGradient id="paint3_radial_0_12" cx="0" cy="0" r="1" gradientUnits="userSpaceOnUse" gradientTransform="translate(19.5 19.5) rotate(90) scale(28.2)">
<stop offset="0.303178" stop-color="#264BFF"/>
<stop offset="1" stop-color="white" stop-opacity="0.1"/>
</radialGradient>
</defs>
</svg>
